<svg width="45" height="40" viewBox="0 0 45 40" fill="none" xmlns="http://www.w3.org/2000/svg">
<path d="M38.0942 3.31745C35.2255 1.78422 32.1506 0.650958 28.9351 0.00655549C28.9064 4.01793e-05 28.8768 0.00423888 28.8502 0.018571C28.8237 0.0329031 28.8016 0.0566596 28.7869 0.0865503C28.3932 0.906496 27.9545 1.97532 27.647 2.8197C24.2366 2.21583 20.7695 2.21583 17.3591 2.8197C17.0167 1.8839 16.6304 0.971435 16.2023 0.0865503C16.1878 0.0562916 16.1658 0.0319977 16.1394 0.0169107C16.1129 0.00182358 16.0832 -0.00333937 16.0542 0.00211113C12.8405 0.646513 9.76562 1.77977 6.89508 3.31523C6.87038 3.3275 6.84944 3.34844 6.83508 3.37522C1.00025 13.5412 -0.599081 23.4561 0.186521 33.2466C0.188707 33.2706 0.194987 33.2938 0.204979 33.3148C0.214972 33.3358 0.228467 33.3542 0.244644 33.3688C3.65028 36.3073 7.44882 38.5458 11.4812 39.9906C11.5093 40.0008 11.5394 40.0008 11.5675 39.9905C11.5956 39.9802 11.6204 39.9601 11.6387 39.9328C12.5049 38.5551 13.2774 37.0997 13.9374 35.5709C13.9767 35.482 13.9392 35.3753 13.8605 35.3398C12.6493 34.7992 11.4757 34.1469 10.3506 33.3888C10.3304 33.3751 10.3133 33.3557 10.301 33.3323C10.2887 33.3089 10.2815 33.2822 10.28 33.2547C10.2785 33.2272 10.2828 33.1996 10.2925 33.1746C10.3022 33.1495 10.317 33.1277 10.3356 33.111C10.5718 32.9044 10.8081 32.6889 11.0331 32.4733C11.0533 32.4539 11.0777 32.4416 11.1036 32.4377C11.1294 32.4337 11.1556 32.4384 11.1793 32.4511C18.5422 36.3708 26.5164 36.3708 33.793 32.4511C33.8168 32.4376 33.8433 32.4324 33.8695 32.4359C33.8957 32.4394 33.9205 32.4516 33.9412 32.4711C34.1662 32.6889 34.4005 32.9044 34.6387 33.111C34.6574 33.1273 34.6725 33.1489 34.6825 33.1737C34.6925 33.1986 34.6972 33.226 34.696 33.2535C34.6949 33.281 34.6881 33.3078 34.6761 33.3314C34.6641 33.355 34.6474 33.3747 34.6274 33.3888C33.5062 34.1532 32.34 34.7998 31.1156 35.3376C31.0968 35.3457 31.0797 35.3584 31.0654 35.375C31.0511 35.3915 31.0399 35.4115 31.0326 35.4336C31.0253 35.4557 31.0221 35.4794 31.0232 35.503C31.0242 35.5267 31.0296 35.5498 31.0388 35.5709C31.7137 37.0975 32.4862 38.5507 33.3356 39.9306C33.3532 39.9589 33.3778 39.9801 33.406 39.9912C33.4342 40.0024 33.4646 40.0029 33.4931 39.9928C37.5323 38.5521 41.3371 36.3126 44.7465 33.3688C44.7631 33.355 44.7771 33.3372 44.7874 33.3165C44.7978 33.2958 44.8043 33.2727 44.8065 33.2488C45.744 21.9296 43.2353 12.0946 38.1523 3.37967C38.1398 3.35135 38.1192 3.32927 38.0942 3.31745ZM15.038 27.2848C12.8218 27.2848 10.9937 24.9094 10.9937 21.9962C10.9937 19.0809 12.7862 16.7077 15.038 16.7077C17.3067 16.7077 19.1178 19.1009 19.0822 21.9962C19.0822 24.9116 17.2898 27.2848 15.038 27.2848V27.2848ZM29.9907 27.2848C27.7726 27.2848 25.9464 24.9094 25.9464 21.9962C25.9464 19.0809 27.737 16.7077 29.9907 16.7077C32.2593 16.7077 34.0705 19.1009 34.0349 21.9962C34.0349 24.9116 32.2612 27.2848 29.9907 27.2848V27.2848Z" fill="#FFF9E3"/>
</svg>
