<svg width="45" height="40" viewBox="0 0 45 40" fill="none" xmlns="http://www.w3.org/2000/svg">
<path d="M45 4.74473C43.3452 5.54653 41.5674 6.08828 39.6985 6.33316C41.6269 5.0715 43.0696 3.0858 43.7574 0.746578C41.9457 1.92325 39.9628 2.75149 37.8951 3.19531C36.5045 1.57192 34.6628 0.495911 32.6557 0.134339C30.6486 -0.227233 28.5885 0.145862 26.7952 1.1957C25.0019 2.24554 23.5757 3.91338 22.7381 5.94028C21.9006 7.96719 21.6984 10.2398 22.1631 12.4051C18.4921 12.2036 14.9008 11.1603 11.6224 9.34294C8.34405 7.52558 5.45177 4.97478 3.13331 1.85609C2.34057 3.35134 1.88474 5.08495 1.88474 6.93125C1.88386 8.59335 2.25819 10.23 2.97452 11.696C3.69086 13.1619 4.72704 14.4119 5.99115 15.335C4.52512 15.284 3.09144 14.8508 1.80943 14.0716V14.2016C1.80929 16.5328 2.54675 18.7922 3.89669 20.5965C5.24663 22.4008 7.1259 23.6388 9.21563 24.1006C7.85564 24.503 6.42981 24.5623 5.0458 24.2739C5.6354 26.2797 6.78388 28.0338 8.33046 29.2904C9.87705 30.5471 11.7443 31.2434 13.6708 31.2821C10.4004 34.0892 6.36153 35.612 2.20382 35.6053C1.46733 35.6055 0.731456 35.5585 0 35.4644C4.22031 38.4314 9.13306 40.0061 14.1504 40C31.1349 40 40.4199 24.6185 40.4199 11.2783C40.4199 10.8449 40.41 10.4072 40.3922 9.97375C42.1982 8.54563 43.7572 6.77717 44.996 4.75123L45 4.74473V4.74473Z" fill="#FFF9E3"/>
</svg>
